<mxfile host="app.diagrams.net" modified="2024-04-23T14:27:30.183Z" agent="Mozilla/5.0 (Windows NT 10.0; Win64; x64) AppleWebKit/537.36 (KHTML, like Gecko) Chrome/124.0.0.0 Safari/537.36" version="24.2.8" etag="z_v7o6piXLdaOiYmb330" type="github">
  <diagram name="Halaman-1" id="JgfvTPMUUpsrhvB6HKR5">
    <mxGraphModel>
      <root>
        <mxCell id="0" />
        <mxCell id="1" parent="0" />
      </root>
    </mxGraphModel>
  </diagram>
</mxfile>
